<svg xmlns="http://www.w3.org/2000/svg" viewBox="239.00 275.44 797.27 167.89" role="img" aria-label="Sanrê"><title>Sanrê</title><path fill="#141414" d="M288.71 443.33Q273.74 443.33 260.18 438.56Q246.62 433.8 239 426.33L245.09 414.03Q252.34 420.75 264.06 425.26Q275.78 429.78 288.65 429.78Q300.68 429.78 308.23 426.84Q315.78 423.9 319.38 418.87Q322.98 413.84 322.98 407.65Q322.98 400.26 318.58 395.79Q314.18 391.32 307.02 388.66Q299.86 386 291.26 384.02Q282.65 382.04 274.01 379.59Q265.37 377.13 258.22 373.2Q251.06 369.27 246.66 362.67Q242.26 356.06 242.26 345.56Q242.26 335.61 247.52 327.24Q252.78 318.86 263.7 313.77Q274.63 308.67 291.63 308.67Q302.95 308.67 314.06 311.78Q325.17 314.88 333.23 320.48L327.83 333.08Q319.4 327.49 309.91 324.86Q300.42 322.22 291.56 322.22Q279.97 322.22 272.45 325.32Q264.93 328.41 261.43 333.51Q257.92 338.6 257.92 344.98Q257.92 352.43 262.32 356.9Q266.71 361.37 273.87 363.97Q281.03 366.57 289.67 368.61Q298.31 370.65 306.92 373.07Q315.52 375.49 322.68 379.36Q329.84 383.23 334.24 389.77Q338.64 396.32 338.64 406.63Q338.64 416.45 333.28 424.82Q327.93 433.2 316.85 438.27Q305.77 443.33 288.71 443.33Z M393 442 453.14 310H468.79L529.06 442H512.32L457.66 319.02H464.14L409.48 442ZM417.4 407.71 421.97 394.79H497.73L502.43 407.71Z M588 442V310H601.05L690.53 422.2H683.72V310H699.51V442H686.46L596.98 329.8H603.79V442Z M774 442V310H824.19Q849.54 310 864.07 322.05Q878.6 334.1 878.6 355.54Q878.6 369.63 872.06 379.79Q865.52 389.95 853.34 395.39Q841.17 400.83 824.19 400.83H782.72L789.79 393.51V442ZM863.37 442 829.5 394.1H846.75L880.74 442ZM789.79 394.92 782.72 387.28H823.8Q842.9 387.28 852.79 378.92Q862.69 370.57 862.69 355.54Q862.69 340.33 852.79 332.07Q842.9 323.81 823.8 323.81H782.72L789.79 316.04Z M942 442V310H1033.56V323.81H957.79V428.19H1036.27V442ZM956.33 381.74V368.19H1025.33V381.74ZM955.65 299.25 980.32 275.44H995.3L1019.97 299.25H1005.93L981.62 278.98H994L969.69 299.25Z"/></svg>